<?xml version="1.0" encoding="UTF-8"?>
<svg version="1.0" viewBox="0 0 64 64" xmlns="http://www.w3.org/2000/svg" xmlns:cc="http://creativecommons.org/ns#" xmlns:dc="http://purl.org/dc/elements/1.1/" xmlns:rdf="http://www.w3.org/1999/02/22-rdf-syntax-ns#">
<metadata>
<rdf:RDF>
<cc:Work rdf:about="">
<dc:format>image/svg+xml</dc:format>
<dc:type rdf:resource="http://purl.org/dc/dcmitype/StillImage"/>
<dc:title/>
</cc:Work>
</rdf:RDF>
</metadata>
<path d="m31.188 0c-17.283 0.43835-31.187 14.612-31.188 32 2.3685e-15 17.664 14.336 32 32 32s32-14.336 32-32-14.336-32-32-32c-0.276 3.7007e-17 -0.53817-0.006958-0.8125 0zm-0.03125 5.5c0.28353-0.0089897 0.55805 0 0.84375 0 14.628-2e-7 26.5 11.872 26.5 26.5-2e-6 14.628-11.872 26.5-26.5 26.5-14.628-1e-6 -26.5-11.872-26.5-26.5-1e-7 -14.342 11.423-26.049 25.656-26.5z" fill="#4f68c2"/>
<path d="m25.645 38.743c2.0608 2.8822 8.3503 3.0903 10.51 1.8683 0.79261-0.44855 0.99059-1.7469 0.99061-2.6271-1.7e-5 -0.60404-0.15899-1.0786-0.47691-1.4238-0.33562-0.34516-1.1894-1.2213-2.1785-1.4802-5.0164-1.2944-8.4916-2.9111-9.8517-4.0847-1.6957-1.467-1.9694-2.4251-1.9694-4.9793-2e-6 -2.5542 0.73449-4.695 2.3948-6.2311 1.6603-1.536 4.0714-2.304 7.2331-2.304 3.0204 2.7e-5 7.2683 0.79728 9.3394 3.2558l-3.453 3.7562c-1.9475-1.635-3.3959-1.7827-5.7804-1.7827-1.5014 2.2e-5 -2.283 0.21575-2.9188 0.64719-0.63588 0.41422-0.95382 0.95786-0.95382 1.6309-7e-6 0.60406 0.29144 1.1046 0.87433 1.5015 0.58288 0.41422 2.1063 1.0355 5.1444 1.8639 3.409 0.93197 5.7229 2.0624 6.9417 3.3913 1.2011 1.3289 1.8016 3.0979 1.8017 5.307-2.3e-5 2.6578-0.93618 4.8496-2.8085 6.5755-1.8547 1.7258-4.1376 3.0672-7.423 3.0672-4.229-1e-6 -9.8737-1.4939-11.431-4.2553" fill="#4f68c2"/>
<path d="m30.375 12.875v6.8438h3.25v-6.8438h-3.25zm0 32.094v6.1562h3.25v-6.1562h-3.25z" fill="#4f68c2"/>
</svg>
